# xmcd
#
# Track frame offsets: 
#        183
#        21613
#        39133
#        67283
#        98350
#        121160
#        141770
#        162400
#
# Disc length: 2587 seconds
#
# Revision: 1
# Processed by: cddbd v1.5.2PL0 Copyright (c) Steve Scherf et al.
# Submitted via: ExactAudioCopy v1.3
#
DISCID=670a1908
DTITLE=Barclay James Harvest - Eyes Of The Universe (1984)
DYEAR=1984
DGENRE=Rock
TTITLE0=Love On The Line
TTITLE1=Alright Down Get Boogie(Muala Rusic)
TTITLE2=The Song(They Love To Sing)
TTITLE3=Skin Flicks
TTITLE4=Sperratus
TTITLE5=Rock'n Roll Lady
TTITLE6=Capricorn
TTITLE7=Play To The World
EXTD=
EXTT0=
EXTT1=
EXTT2=
EXTT3=
EXTT4=
EXTT5=
EXTT6=
EXTT7=
PLAYORDER=
